<svg xmlns="http://www.w3.org/2000/svg" width="57.515" height="53.027" viewBox="0 0 57.515 53.027">
  <path id="ic_favorite_border_24px" d="M42.973,3A16.922,16.922,0,0,0,30.257,8.906,16.922,16.922,0,0,0,17.541,3,15.391,15.391,0,0,0,2,18.541C2,29.223,11.607,37.926,26.16,51.15l4.1,3.7,4.1-3.73c14.552-13.2,24.16-21.9,24.16-32.581A15.391,15.391,0,0,0,42.973,3ZM30.54,46.94l-.283.283-.283-.283C16.524,34.761,7.651,26.708,7.651,18.541a9.657,9.657,0,0,1,9.89-9.89A11.047,11.047,0,0,1,27.629,15.32h5.284a10.977,10.977,0,0,1,10.06-6.669,9.657,9.657,0,0,1,9.89,9.89C52.863,26.708,43.99,34.761,30.54,46.94Z" transform="translate(-1.5 -2.5)" fill="#fff" stroke="#fff" stroke-width="1"/>
</svg>
