<svg xmlns="http://www.w3.org/2000/svg" width="52.575" height="52.575" viewBox="0 0 52.575 52.575">
  <path id="ic_perm_identity_24px" d="M29.787,10.125a6.769,6.769,0,1,1-6.769,6.769,6.768,6.768,0,0,1,6.769-6.769m0,29.011c9.574,0,19.663,4.706,19.663,6.769V49.45H10.125V45.9c0-2.063,10.089-6.769,19.663-6.769M29.787,4A12.894,12.894,0,1,0,42.681,16.894,12.89,12.89,0,0,0,29.787,4Zm0,29.011C21.181,33.011,4,37.33,4,45.9v9.67H55.575V45.9C55.575,37.33,38.394,33.011,29.787,33.011Z" transform="translate(-3.5 -3.5)" fill="#fff" stroke="rgba(149,152,154,0.04)" stroke-width="1"/>
</svg>
