<svg xmlns="http://www.w3.org/2000/svg" width="52.636" height="52.636" viewBox="0 0 52.636 52.636">
  <path id="ic_shopping_cart_24px" d="M16.491,43.309a5.164,5.164,0,1,0,5.164,5.164A5.157,5.157,0,0,0,16.491,43.309ZM1,2V7.164H6.164l9.295,19.6-3.485,6.325a4.992,4.992,0,0,0-.645,2.479,5.179,5.179,0,0,0,5.164,5.164H47.473V35.564h-29.9a.639.639,0,0,1-.645-.645l.077-.31L19.331,30.4H38.565a5.139,5.139,0,0,0,4.518-2.659l9.243-16.756a2.522,2.522,0,0,0,.31-1.239,2.589,2.589,0,0,0-2.582-2.582H11.869L9.443,2H1ZM42.309,43.309a5.164,5.164,0,1,0,5.164,5.164A5.157,5.157,0,0,0,42.309,43.309Z" transform="translate(-0.5 -1.5)" fill="#fff" stroke="rgba(149,152,154,0)" stroke-width="1"/>
</svg>
